<?xml version="1.0" encoding="UTF-8"?>
<svg width="1200pt" height="1200pt" version="1.1" viewBox="0 0 1200 1200" xmlns="http://www.w3.org/2000/svg">
 <path d="m994.73 812.89c-6.4922-37.625-18.574-82.016-32.707-133.95l-98.844-363.21c-16.359-60.117-29.961-110.11-46.168-148.34-2.3398-5.5234-4.7852-10.926-7.3672-16.199 71.906 2.7812 115.71 12.023 146.42 42.738 43.934 43.934 43.934 114.64 43.934 256.07v200c0 69.734 0 122.28-5.2695 162.89z"/>
 <path d="m137.14 511.32c-34.293-126.01-51.438-189.02-22.332-238.65s93.094-66.52 221.07-100.29l135.74-35.812c127.98-33.766 191.97-50.648 242.38-21.988 50.414 28.656 67.559 91.664 101.85 217.68l96.996 356.41c34.289 126.01 51.434 189.02 22.328 238.65-29.105 49.637-93.094 66.523-221.07 100.28l-135.74 35.816c-127.98 33.766-191.97 50.648-242.38 21.988-50.41-28.652-67.559-91.664-101.85-217.68z"/>
</svg>
