<?xml version="1.0" encoding="UTF-8" standalone="no"?>
<!DOCTYPE svg PUBLIC "-//W3C//DTD SVG 1.1//EN" "http://www.w3.org/Graphics/SVG/1.1/DTD/svg11.dtd">
<svg width="100%" height="100%" viewBox="0 0 2048 1152" version="1.1" xmlns="http://www.w3.org/2000/svg" xmlns:xlink="http://www.w3.org/1999/xlink" xml:space="preserve" xmlns:serif="http://www.serif.com/" style="fill-rule:evenodd;clip-rule:evenodd;stroke-linejoin:round;stroke-miterlimit:2;">
    <g transform="matrix(0.560818,0,0,0.560818,537.518,239.523)">
        <path d="M1585.62,96.797L1585.61,96.798L1585.61,96.752L1585.62,96.797ZM1585.62,96.797C1597.9,95.016 1610.04,92.532 1622.03,89.439C1697.55,69.798 1697.55,198.609 1622.03,178.97C1610.03,175.876 1597.89,173.392 1585.61,171.657C1590.53,146.923 1590.53,121.533 1585.62,96.797ZM1585.62,1028.43C1597.9,1026.65 1610.04,1024.16 1622.03,1021.07C1697.55,1001.43 1697.55,1130.24 1622.03,1110.6C1610.03,1107.51 1597.89,1105.02 1585.61,1103.29C1590.53,1078.55 1590.53,1053.16 1585.62,1028.43ZM1585.62,1028.43L1585.61,1028.43L1585.61,1028.38L1585.62,1028.43ZM149.281,96.799C144.368,121.535 144.371,146.925 149.29,171.613L149.29,171.66C137.009,173.394 124.868,175.879 112.868,178.973C37.352,198.566 37.352,69.753 112.868,89.394L112.868,89.441C124.865,92.534 137.003,95.018 149.281,96.799ZM149.281,96.799L149.29,96.754L149.29,96.801L149.281,96.799ZM234.114,442.915L234.114,249.61L1500.82,249.61L1500.82,950.39L234.114,950.39L234.114,775.178C249.259,783.591 265.153,790.719 281.797,796.562C287.945,798.539 294.422,799.527 301.229,799.527C310.671,799.527 319.893,798.648 328.896,796.892L334.825,795.904L369.738,788.328C391.915,782.839 414.751,778.337 438.246,774.824C453.178,773.287 464.431,767.029 472.007,756.05C478.426,746.747 483.465,737.207 487.125,727.431C488.249,728.556 489.465,729.655 490.773,730.731C501.525,739.828 512.121,749.029 522.562,758.332C533.003,767.636 543.599,776.837 554.35,785.934C561.173,791.723 568.926,794.618 577.61,794.618L580.091,794.618C618.754,791.93 657.107,787.795 695.149,782.213C718.513,778.904 741.979,776.01 765.549,773.529C772.372,772.909 778.42,770.686 783.692,766.861C784.233,766.468 784.75,766.062 785.242,765.642C787.005,767.29 789.112,768.7 791.563,769.872C803.807,775.887 816.695,780.72 830.228,784.372C843.761,788.023 857.508,791.138 871.471,793.716C875.982,794.79 880.278,795.703 884.359,796.455C888.44,797.206 892.307,797.582 895.959,797.582C906.055,797.582 915.399,795.595 923.991,791.621C932.583,787.647 940.96,783.083 949.123,777.928C958.789,771.698 958.079,773.675 968.39,769.594C972.256,779.26 985.533,782.116 986.821,792.427C1002.07,793.931 1017.32,794.682 1032.58,794.682C1048.47,794.682 1064.47,794.253 1080.58,793.394L1099.92,792.749C1106.79,792.749 1112.43,790.494 1116.83,785.983C1117.04,785.773 1117.24,785.563 1117.43,785.351C1123.7,792.652 1136.06,796.303 1154.5,796.303C1160.11,796.303 1165.71,796.088 1171.32,795.656C1174.77,795.01 1184.14,794.471 1199.45,794.039C1216.91,793.824 1234.16,791.883 1251.19,788.218C1264.35,784.984 1271.46,779.055 1272.54,770.432C1273.4,763.964 1313.83,782.936 1322.02,790.482C1326.11,794.363 1331.07,796.303 1336.89,796.303L1352.74,796.303C1392.84,796.303 1426.58,792.099 1453.96,783.691C1459.35,781.535 1464.2,777.223 1468.52,770.755C1472.83,764.287 1475.95,758.466 1477.89,753.292C1478.54,747.902 1478.86,742.62 1478.86,737.445C1478.86,722.138 1477.41,706.939 1474.5,691.847C1471.59,676.755 1470.13,661.448 1470.13,645.925C1469.7,631.911 1469.16,618.221 1468.52,604.854C1467.01,583.294 1466.25,561.842 1466.25,540.498C1466.25,533.384 1466.36,526.377 1466.58,519.478C1466.58,511.069 1465.61,503.362 1463.66,496.355C1461.72,489.348 1457.09,483.904 1449.76,480.024C1437.04,473.556 1411.27,461.051 1372.47,442.51C1361.47,436.689 1350.26,433.778 1338.83,433.778C1332.37,433.778 1326.22,435.18 1320.4,437.982L1310.05,447.684C1297.12,461.267 1282.28,466.441 1282.28,466.441C1282.28,459.111 1263.59,452.104 1261.87,445.42C1259.71,437.659 1253.89,432.161 1244.4,428.927L1234.7,428.604C1223.92,428.604 1213.25,429.251 1202.68,430.544C1192.12,431.838 1181.56,433.239 1170.99,434.748C1154.61,437.551 1138.11,439.492 1121.51,440.569C1115.69,440.569 1110.62,442.025 1106.31,444.935C1102,447.846 1099.85,451.457 1099.85,455.769C1100.45,458.575 1101.14,461.264 1101.93,463.836C1091.4,457.999 1080.32,452.984 1068.66,448.792C1051.05,442.455 1033.11,436.924 1014.85,432.198C1005.62,431.124 996.38,430.587 987.144,430.587C970.604,430.587 954.01,431.876 937.362,434.454C920.715,437.031 904.121,440.039 887.581,443.475L864.06,447.986C859.12,449.275 854.179,450.349 849.238,451.208C841.72,452.497 834.524,454.162 827.651,456.203C820.777,458.243 795.942,458.333 795.942,441.379C795.942,416.982 792.737,394.756 786.328,374.701C781.779,370.359 776.352,367.413 770.046,365.862C763.74,364.311 757.279,363.226 750.663,362.606C717.582,359.918 689.36,357.127 665.997,354.232C640.566,351.338 615.136,348.96 589.705,347.099C556.004,369.429 524.474,393.929 495.115,420.6C485.811,430.731 481.159,441.792 481.159,453.784C481.159,459.366 482.09,464.949 483.95,470.531C484.67,479.812 478.483,484.631 473.159,478.887C460.643,465.383 444.504,456.545 424.742,452.373L416.837,449.738C402.784,444.688 386.865,439.637 369.079,434.587C351.293,429.537 334.605,427.012 319.015,427.012C312.208,427.012 305.95,427.67 300.241,428.988C292.117,431.403 281.467,433.709 268.292,435.904C256.536,437.779 245.143,440.116 234.114,442.915ZM225.84,56.25L1509.08,56.25C1566.08,56.25 1566.08,212.15 1509.08,212.15L225.84,212.15C168.84,212.15 168.84,56.25 225.84,56.25ZM225.84,1143.7C168.84,1143.7 168.84,987.8 225.84,987.8L1509.08,987.8C1566.08,987.8 1566.08,1143.7 1509.08,1143.7L225.84,1143.7ZM149.29,1028.3C144.368,1053.05 144.368,1078.46 149.29,1103.21C137.009,1104.94 124.868,1107.42 112.868,1110.52C37.352,1130.11 37.352,1001.3 112.868,1020.94L112.868,1020.99C124.868,1024.08 137.009,1026.57 149.29,1028.3Z"/>
    </g>
    <g transform="matrix(0.392481,0,0,0.392481,415.112,443.606)">
        <path d="M-374.676,577.165C-387.884,577.165 -401.286,576.453 -414.883,575.029C-428.479,573.604 -441.881,572.892 -455.089,572.892C-464.153,572.892 -473.153,573.281 -482.087,574.058C-491.022,574.835 -500.54,575.223 -510.64,575.223C-539.127,575.223 -567.226,572.115 -594.937,565.9L-595.325,565.511C-597.915,561.886 -600.376,558.131 -602.706,554.246C-605.037,550.361 -606.332,546.218 -606.591,541.815C-609.44,515.917 -610.864,489.113 -610.864,461.402L-610.864,448.583L-611.253,401.967C-611.253,382.026 -605.426,365.71 -593.772,353.02C-586.002,353.02 -578.557,354.25 -571.435,356.71C-564.313,359.171 -557.256,361.955 -550.263,365.062L-535.502,370.89C-523.848,375.81 -512.323,380.99 -500.928,386.428C-486.166,393.68 -471.081,400.348 -455.672,406.434C-440.262,412.52 -424.141,416.858 -407.307,419.448C-402.905,416.599 -398.891,413.491 -395.265,410.125C-391.639,406.758 -389.826,402.744 -389.826,398.082C-390.344,395.751 -390.603,393.291 -390.603,390.701C-390.603,381.637 -394.035,373.932 -400.898,367.588C-407.761,361.243 -415.854,356.387 -425.177,353.02C-437.608,348.099 -450.168,343.438 -462.858,339.035C-500.151,326.345 -535.89,310.936 -570.075,292.808C-580.952,286.592 -589.757,278.693 -596.491,269.111C-603.224,259.529 -606.591,249.17 -606.591,238.034C-606.591,219.905 -606.785,205.014 -607.174,193.36C-607.562,181.706 -607.756,170.052 -607.756,158.398L-607.368,135.867C-605.037,125.767 -600.505,116.832 -593.772,109.063C-587.038,101.294 -579.528,93.848 -571.241,86.726C-562.953,79.604 -555.313,72.029 -548.321,64.001C-545.213,60.893 -542.235,57.526 -539.386,53.901C-533.948,47.167 -527.991,40.952 -521.517,35.254C-515.042,29.557 -507.014,26.708 -497.432,26.708C-483.447,27.485 -469.721,28.391 -456.254,29.427C-432.687,31.758 -408.473,32.923 -383.611,32.923C-371.18,34.736 -358.749,35.643 -346.318,35.643C-324.046,35.643 -303.716,34.218 -285.329,31.369C-271.085,29.816 -256.453,28.65 -241.432,27.873C-234.958,27.873 -229.908,30.204 -226.282,34.866C-222.656,39.527 -220.325,44.448 -219.29,49.627C-212.297,75.007 -208.801,100.776 -208.801,126.932C-209.319,136.515 -209.578,146.097 -209.578,155.679C-209.578,166.556 -210.484,177.239 -212.297,187.727C-214.11,198.216 -218.513,208.122 -225.505,217.445C-249.072,216.15 -271.992,211.359 -294.264,203.072C-304.882,199.705 -315.629,196.597 -326.506,193.749C-336.089,190.9 -345.8,187.404 -355.641,183.26C-363.929,179.893 -372.281,176.85 -380.698,174.131C-389.114,171.412 -397.725,170.052 -406.531,170.052C-411.969,170.052 -417.408,170.7 -422.846,171.994C-424.659,175.879 -425.565,179.893 -425.565,184.037C-425.565,194.655 -419.997,203.719 -408.861,211.23C-380.374,225.991 -350.462,237.904 -319.126,246.969C-290.638,255.256 -263.316,265.744 -237.159,278.434C-219.031,289.311 -207.765,303.555 -203.362,321.166C-199.478,336.963 -197.535,352.891 -197.535,368.947L-197.147,383.709C-193.78,407.535 -192.097,431.49 -192.097,455.575C-192.097,467.229 -192.485,479.013 -193.262,490.926C-231.85,521.485 -274.452,547.124 -321.068,567.842C-335.83,574.058 -353.699,577.165 -374.676,577.165Z" style="fill:rgb(28,18,28);fill-rule:nonzero;"/>
        <path d="M26.61,576C18.582,576 10.942,574.835 3.69,572.504C-20.653,563.958 -43.638,553.08 -65.262,539.873C-86.887,526.665 -107.541,512.421 -127.223,497.141C-144.833,483.674 -153.639,467.618 -153.639,448.971L-154.027,420.613L-153.25,344.474C-153.25,330.748 -153.639,315.468 -154.416,298.635C-154.416,283.096 -150.725,268.593 -143.344,255.126C-135.963,241.66 -127.611,228.452 -118.288,215.503C-109.742,203.59 -102.102,191.547 -95.369,179.375C-90.707,170.052 -80.154,163.06 -63.709,158.398C-47.263,153.737 -30.106,149.981 -12.237,147.133C3.302,144.543 15.862,141.824 25.445,138.975C32.178,137.421 39.559,136.644 47.587,136.644C65.975,136.644 85.657,139.622 106.634,145.579C127.611,151.535 146.387,157.492 162.962,163.448L172.285,166.556C195.593,171.477 214.628,181.9 229.39,197.828C244.151,213.755 251.532,234.667 251.532,260.565L251.532,263.284C252.05,283.743 253.086,304.203 254.64,324.662C256.712,349.524 257.748,374.127 257.748,398.471C257.748,431.102 254.511,459.848 248.036,484.71C243.633,498.436 236.965,511.773 228.03,524.722C219.095,537.671 205.823,545.052 188.212,546.865C160.502,551.009 133.568,556.318 107.411,562.792L66.234,571.727L59.241,572.892C48.623,574.964 37.746,576 26.61,576ZM47.976,429.936C64.55,429.936 74.909,426.958 79.053,421.002C84.492,410.902 87.211,396.14 87.211,376.717C87.211,365.839 86.693,356.193 85.657,347.776C84.621,339.359 84.103,331.136 84.103,323.108L84.103,320.389C84.103,293.196 78.924,277.269 68.564,272.607C63.385,270.536 57.687,269.5 51.472,269.5C43.961,269.5 36.84,270.795 30.106,273.384C19.488,282.708 14.179,293.585 14.179,306.016L14.179,333.208C14.179,357.811 15.862,382.285 19.229,406.628C19.747,408.182 20.136,409.866 20.395,411.679C22.466,419.707 25.574,425.275 29.718,428.383C34.638,429.419 40.724,429.936 47.976,429.936Z" style="fill:rgb(28,18,28);fill-rule:nonzero;"/>
        <path d="M356.03,576L339.714,575.612C332.981,575.094 327.607,572.633 323.593,568.231C319.579,563.828 317.572,558.519 317.572,552.304C318.608,508.795 319.126,465.287 319.126,421.779C319.126,373.35 318.802,324.986 318.154,276.686C317.507,228.387 317.183,180.023 317.183,131.594C317.183,117.868 315.5,103.495 312.133,88.474C309.284,74.489 307.86,62.188 307.86,51.57C307.86,34.736 315.888,26.319 331.945,26.319C360.95,28.391 381.928,29.427 394.877,29.427C421.551,29.427 447.838,27.096 473.735,22.435C477.102,21.658 480.339,21.269 483.447,21.269C493.288,21.269 501.511,24.442 508.115,30.787C514.719,37.132 518.021,45.484 518.021,55.843C517.244,64.648 516.078,72.547 514.524,79.539C510.64,98.186 508.697,127.709 508.697,168.11C508.697,189.864 508.956,209.158 509.474,225.991C509.992,241.012 510.251,257.587 510.251,275.715L509.474,346.416C509.474,365.58 510.251,384.615 511.805,403.521C513.1,417.765 514.136,432.008 514.913,446.252C516.467,476.552 519.445,506.723 523.848,536.765L524.236,541.426C524.236,547.642 522.294,553.534 518.409,559.102C514.524,564.67 508.827,568.101 501.316,569.396C487.073,570.95 472.958,571.727 458.974,571.727L444.212,571.727C435.666,571.727 427.119,571.986 418.573,572.504C397.855,574.835 377.007,576 356.03,576Z" style="fill:rgb(28,18,28);fill-rule:nonzero;"/>
        <path d="M747.604,576C739.576,576 731.936,574.835 724.685,572.504C700.341,563.958 677.357,553.08 655.732,539.873C634.107,526.665 613.454,512.421 593.772,497.141C576.161,483.674 567.356,467.618 567.356,448.971L566.967,420.613L567.744,344.474C567.744,330.748 567.356,315.468 566.579,298.635C566.579,283.096 570.269,268.593 577.65,255.126C585.031,241.66 593.383,228.452 602.706,215.503C611.253,203.59 618.892,191.547 625.626,179.375C630.287,170.052 640.841,163.06 657.286,158.398C673.731,153.737 690.888,149.981 708.758,147.133C724.296,144.543 736.857,141.824 746.439,138.975C753.172,137.421 760.553,136.644 768.582,136.644C786.969,136.644 806.651,139.622 827.629,145.579C848.606,151.535 867.382,157.492 883.956,163.448L893.28,166.556C916.588,171.477 935.622,181.9 950.384,197.828C965.146,213.755 972.527,234.667 972.527,260.565L972.527,263.284C973.045,283.743 974.081,304.203 975.634,324.662C977.706,349.524 978.742,374.127 978.742,398.471C978.742,431.102 975.505,459.848 969.031,484.71C964.628,498.436 957.959,511.773 949.025,524.722C940.09,537.671 926.817,545.052 909.207,546.865C881.496,551.009 854.562,556.318 828.406,562.792L787.228,571.727L780.236,572.892C769.618,574.964 758.741,576 747.604,576ZM768.97,429.936C785.545,429.936 795.904,426.958 800.047,421.002C805.486,410.902 808.205,396.14 808.205,376.717C808.205,365.839 807.687,356.193 806.651,347.776C805.616,339.359 805.098,331.136 805.098,323.108L805.098,320.389C805.098,293.196 799.918,277.269 789.559,272.607C784.379,270.536 778.682,269.5 772.466,269.5C764.956,269.5 757.834,270.795 751.101,273.384C740.483,282.708 735.174,293.585 735.174,306.016L735.174,333.208C735.174,357.811 736.857,382.285 740.224,406.628C740.742,408.182 741.13,409.866 741.389,411.679C743.461,419.707 746.569,425.275 750.712,428.383C755.633,429.419 761.719,429.936 768.97,429.936Z" style="fill:rgb(28,18,28);fill-rule:nonzero;"/>
        <path d="M1150.83,576L1147.73,576C1136.85,576 1127.14,572.374 1118.59,565.123C1105.12,553.728 1091.85,542.203 1078.77,530.549C1065.69,518.895 1052.42,507.371 1038.95,495.976C1027.3,486.394 1021.47,475.258 1021.47,462.568C1021.47,459.201 1021.86,455.834 1022.64,452.468C1025.23,437.447 1026.52,422.426 1026.52,407.405L1026.52,403.521C1026.52,398.341 1026.65,393.291 1026.91,388.371C1031.83,349.265 1034.29,310.03 1034.29,270.665C1034.29,236.998 1033,203.46 1030.41,170.052C1028.08,163.06 1026.91,156.067 1026.91,149.075C1026.91,134.054 1032.74,120.199 1044.39,107.509C1081.17,74.101 1120.66,43.412 1162.88,15.442C1194.73,17.773 1226.58,20.751 1258.44,24.377C1287.7,28.003 1323.05,31.499 1364.49,34.866C1372.78,35.643 1380.87,37.002 1388.77,38.945C1396.67,40.887 1403.47,44.577 1409.16,50.016C1417.19,75.137 1421.21,102.977 1421.21,133.536C1421.21,154.772 1420.17,176.138 1418.1,197.633L1416.16,224.049C1414.86,228.452 1413.83,232.984 1413.05,237.645C1411.75,246.451 1409.29,254.803 1405.67,262.701C1402.04,270.6 1395.18,276.492 1385.08,280.377C1380.68,282.967 1376.14,284.261 1371.48,284.261C1360.35,284.261 1350.89,279.47 1343.12,269.888C1324.22,249.688 1304.02,230.782 1282.52,213.172L1257.27,191.418C1245.36,181.318 1231.89,173.16 1216.87,166.944L1214.15,165.391C1212.86,175.232 1212.21,185.073 1212.21,194.914C1212.21,215.114 1213.89,235.444 1217.26,255.903L1217.65,259.788C1218.94,279.47 1219.59,299.282 1219.59,319.223L1219.59,342.92C1219.59,356.387 1219.85,369.983 1220.37,383.709C1220.37,391.219 1222.96,400.542 1228.14,411.679C1251.96,404.168 1275.14,394.974 1297.67,384.097C1315.54,375.551 1333.74,367.847 1352.25,360.984C1370.77,354.121 1390.26,349.783 1410.72,347.97L1414.6,354.574C1416.93,357.941 1418.94,361.307 1420.62,364.674C1422.31,368.041 1423.15,371.666 1423.15,375.551L1421.21,414.786C1418.36,451.043 1416.93,486.782 1416.93,522.003C1416.16,530.031 1412.46,536.441 1405.86,541.232C1399.26,546.023 1391.68,548.807 1383.14,549.584C1353.61,552.692 1324.22,556.318 1294.95,560.461C1247.3,567.454 1199.26,572.633 1150.83,576Z" style="fill:rgb(28,18,28);fill-rule:nonzero;"/>
        <path d="M1604.56,578.719C1600.16,578.719 1595.5,578.266 1590.58,577.36C1585.66,576.453 1580.48,575.353 1575.04,574.058C1558.2,570.95 1541.63,567.195 1525.32,562.792C1509,558.39 1493.46,552.562 1478.7,545.311C1472.74,542.462 1468.47,538.448 1465.88,533.269C1463.29,528.089 1462,522.78 1462,517.342L1462.38,512.68C1466.79,485.228 1470.15,457.647 1472.48,429.936C1475.07,399.895 1478.96,369.854 1484.14,339.812C1489.58,334.374 1496.25,330.877 1504.14,329.324C1512.04,327.77 1520.14,326.993 1528.42,326.993C1553.8,325.957 1577.76,323.756 1600.29,320.389C1630.07,316.504 1653.38,314.562 1670.21,314.562C1677.47,314.562 1684.72,314.821 1691.97,315.339L1692.36,306.016C1692.36,299.023 1689.83,293.973 1684.78,290.865C1679.73,287.758 1673.97,286.204 1667.49,286.204C1662.57,286.204 1657.52,286.722 1652.34,287.758L1647.29,288.535C1611.3,295.009 1572.97,298.764 1532.31,299.8C1523.76,299.8 1516.83,296.951 1511.53,291.254C1506.21,285.556 1503.17,279.341 1502.4,272.607C1501.1,259.141 1500.45,245.674 1500.45,232.207L1500.84,198.41L1500.45,179.375C1506.67,173.678 1513.92,169.599 1522.21,167.139C1530.5,164.678 1539.17,162.671 1548.24,161.117C1554.19,160.081 1560.15,158.787 1566.1,157.233L1594.46,151.794C1614.4,147.651 1634.41,144.025 1654.48,140.917C1674.55,137.809 1694.56,136.256 1714.5,136.256C1725.63,136.256 1736.77,136.903 1747.91,138.198C1769.92,143.895 1791.54,150.564 1812.78,158.204C1834.02,165.844 1853.7,175.75 1871.83,187.922C1874.68,211.23 1876.1,234.538 1876.1,257.846C1876.1,270.795 1875.91,283.743 1875.52,296.692C1875.13,309.641 1874.93,322.461 1874.93,335.151C1874.93,357.164 1876.04,378.206 1878.24,398.276C1880.44,418.347 1881.54,438.871 1881.54,459.848C1881.54,473.056 1881.35,486.329 1880.96,499.666C1880.57,513.004 1880.37,526.276 1880.37,539.484L1880.37,546.088C1879.34,553.08 1876.16,559.296 1870.86,564.734C1865.55,570.173 1858.75,572.892 1850.46,572.892L1827.15,573.669C1807.73,574.705 1788.44,575.223 1769.27,575.223C1750.88,575.223 1732.5,574.317 1714.11,572.504C1712.56,560.073 1709.45,548.03 1704.79,536.376C1692.36,541.297 1680.31,547.512 1668.66,555.023C1658.82,561.238 1648.72,566.742 1638.36,571.533C1628,576.324 1616.73,578.719 1604.56,578.719ZM1662.83,452.468C1666.46,452.468 1670.15,452.273 1673.9,451.885C1677.66,451.496 1681.22,451.302 1684.59,451.302L1690.03,451.691C1697.79,438.483 1701.68,424.757 1701.68,410.513C1701.68,405.334 1701.29,400.154 1700.51,394.974L1699.35,394.974C1690.8,394.974 1682.71,396.658 1675.07,400.025C1667.43,403.391 1659.98,407.146 1652.73,411.29L1641.86,417.117L1641.08,423.333C1640.04,427.994 1639.52,432.656 1639.52,437.317C1639.52,439.648 1639.78,442.108 1640.3,444.698C1645.22,449.878 1652.73,452.468 1662.83,452.468Z" style="fill:rgb(28,18,28);fill-rule:nonzero;"/>
        <path d="M2230.38,576L2211.35,576C2204.36,576 2198.4,573.669 2193.48,569.008C2183.64,559.943 2178.72,547.124 2178.72,530.549C2182.86,494.033 2184.93,457.388 2184.93,420.613C2184.93,390.313 2184.28,360.012 2182.99,329.712C2182.99,325.568 2182.8,321.489 2182.41,317.475C2182.02,313.461 2178.52,309.382 2171.92,305.239C2165.31,301.095 2158.26,299.023 2150.75,299.023C2144.53,299.023 2138.9,301.354 2133.85,306.016C2128.8,310.677 2125.89,318.835 2125.11,330.489C2125.11,355.869 2125.76,377.364 2127.05,394.974C2128.09,409.218 2128.86,423.462 2129.38,437.706C2129.9,450.396 2130.93,463.086 2132.49,475.776C2134.56,491.055 2135.6,506.335 2135.6,521.615C2135.6,529.384 2135.08,537.153 2134.04,544.923C2132.75,555.282 2124.2,562.404 2108.4,566.288C2087.95,570.691 2067.23,573.022 2046.25,573.281C2027.86,573.799 2016.6,574.446 2012.45,575.223C2005.72,575.741 1998.99,576 1992.25,576C1964.28,576 1947.97,569.008 1943.31,555.023C1941.49,549.843 1940.59,544.405 1940.59,538.707L1940.98,528.996C1943.31,503.357 1944.47,481.732 1944.47,464.122C1944.73,449.101 1945.51,433.951 1946.8,418.671C1945.51,359.624 1943.31,300.706 1940.2,241.919C1939.42,218.352 1938.38,204.302 1937.09,199.77C1935.8,195.238 1934.37,190.9 1932.82,186.756C1930.23,180.8 1928.15,174.196 1926.6,166.944C1926.6,161.765 1929.19,157.427 1934.37,153.931C1939.55,150.435 1945.64,148.686 1952.63,148.686C1972.57,147.392 1992.38,145.061 2012.06,141.694C2024.75,139.881 2037.44,138.198 2050.13,136.644C2062.82,135.09 2075.64,134.313 2088.59,134.313L2100.25,134.702C2111.64,138.586 2118.63,145.19 2121.22,154.513C2123.3,162.542 2124.33,170.959 2124.33,179.764L2124.33,182.872C2124.33,188.569 2124.59,193.749 2125.11,198.41C2145.57,187.274 2163.57,173.548 2179.11,157.233L2191.54,145.579C2198.53,142.212 2205.91,140.529 2213.68,140.529C2227.4,140.529 2240.87,144.025 2254.08,151.017C2300.7,173.289 2331.64,188.31 2346.92,196.079C2355.73,200.741 2361.3,207.28 2363.63,215.697C2365.96,224.114 2367.12,233.372 2367.12,243.472C2366.86,251.76 2366.73,260.176 2366.73,268.723C2366.73,294.362 2367.64,320.13 2369.45,346.028C2370.23,362.084 2370.88,378.529 2371.4,395.363C2371.4,414.009 2373.14,432.397 2376.64,450.525C2380.14,468.654 2381.88,486.912 2381.88,505.299C2381.88,511.515 2381.5,517.859 2380.72,524.334C2378.39,530.549 2374.63,537.542 2369.45,545.311C2364.27,553.08 2358.45,558.26 2351.97,560.85C2319.08,570.95 2278.55,576 2230.38,576Z" style="fill:rgb(28,18,28);fill-rule:nonzero;"/>
        <path d="M2551.26,577.554C2542.71,577.554 2534.62,575.935 2526.98,572.698C2519.34,569.461 2513.58,564.475 2509.69,557.742C2501.66,541.944 2495.96,525.24 2492.6,507.63C2485.35,476.035 2477.32,444.698 2468.51,413.621C2460.22,384.615 2452.72,355.48 2445.98,326.216C2439.51,307.569 2433.42,288.405 2427.72,268.723C2421.25,244.379 2413.74,221.071 2405.19,198.799C2401.57,190.252 2399.75,181.318 2399.75,171.994C2399.75,159.305 2404.29,151.794 2413.35,149.463C2454.53,140.917 2502.44,136.644 2557.08,136.644L2589.33,137.032C2593.99,137.032 2598.26,138.457 2602.14,141.306C2606.03,144.154 2608.36,147.651 2609.14,151.794C2613.28,170.182 2615.35,188.828 2615.35,207.733C2615.61,224.567 2617.3,241.271 2620.4,257.846C2624.55,279.859 2627.91,302.001 2630.5,324.273C2633.35,352.761 2638.01,380.99 2644.49,408.959C2650.96,384.615 2655.75,360.012 2658.86,335.151C2661.97,310.289 2664.43,285.297 2666.24,260.176C2668.57,224.179 2672.72,188.31 2678.67,152.571L2682.56,148.686C2684.63,146.356 2686.57,144.672 2688.39,143.636C2692.53,141.047 2712.73,139.752 2748.99,139.752C2766.34,139.752 2783.69,140.011 2801.04,140.529C2813.47,140.788 2821.37,141.176 2824.74,141.694C2838.72,142.212 2851.41,145.838 2862.81,152.571C2864.62,159.305 2865.53,166.167 2865.53,173.16C2865.53,183.26 2863.2,197.374 2858.53,215.503C2856.2,224.826 2854.26,234.149 2852.71,243.472C2843.38,281.024 2834.97,318.835 2827.46,356.905C2814.51,404.039 2803.63,451.432 2794.83,499.084L2783.56,553.08C2782.26,558.001 2778.25,563.31 2771.52,569.008L2766.86,573.281L2670.13,572.892C2633.09,572.892 2596.06,574.317 2559.03,577.165L2551.26,577.554Z" style="fill:rgb(28,18,28);fill-rule:nonzero;"/>
        <path d="M3025.19,578.719C3020.78,578.719 3016.12,578.266 3011.2,577.36C3006.28,576.453 3001.1,575.353 2995.66,574.058C2978.83,570.95 2962.25,567.195 2945.94,562.792C2929.62,558.39 2914.08,552.562 2899.32,545.311C2893.37,542.462 2889.09,538.448 2886.5,533.269C2883.91,528.089 2882.62,522.78 2882.62,517.342L2883.01,512.68C2887.41,485.228 2890.78,457.647 2893.11,429.936C2895.7,399.895 2899.58,369.854 2904.76,339.812C2910.2,334.374 2916.87,330.877 2924.77,329.324C2932.67,327.77 2940.76,326.993 2949.05,326.993C2974.43,325.957 2998.38,323.756 3020.91,320.389C3050.7,316.504 3074,314.562 3090.84,314.562C3098.09,314.562 3105.34,314.821 3112.59,315.339L3112.98,306.016C3112.98,299.023 3110.45,293.973 3105.4,290.865C3100.35,287.758 3094.59,286.204 3088.12,286.204C3083.2,286.204 3078.15,286.722 3072.97,287.758L3067.92,288.535C3031.92,295.009 2993.59,298.764 2952.93,299.8C2944.38,299.8 2937.46,296.951 2932.15,291.254C2926.84,285.556 2923.8,279.341 2923.02,272.607C2921.72,259.141 2921.08,245.674 2921.08,232.207L2921.47,198.41L2921.08,179.375C2927.29,173.678 2934.54,169.599 2942.83,167.139C2951.12,164.678 2959.79,162.671 2968.86,161.117C2974.81,160.081 2980.77,158.787 2986.73,157.233L3015.09,151.794C3035.03,147.651 3055.03,144.025 3075.1,140.917C3095.17,137.809 3115.18,136.256 3135.12,136.256C3146.26,136.256 3157.39,136.903 3168.53,138.198C3190.54,143.895 3212.17,150.564 3233.4,158.204C3254.64,165.844 3274.32,175.75 3292.45,187.922C3295.3,211.23 3296.72,234.538 3296.72,257.846C3296.72,270.795 3296.53,283.743 3296.14,296.692C3295.75,309.641 3295.56,322.461 3295.56,335.151C3295.56,357.164 3296.66,378.206 3298.86,398.276C3301.06,418.347 3302.16,438.871 3302.16,459.848C3302.16,473.056 3301.97,486.329 3301.58,499.666C3301.19,513.004 3301,526.276 3301,539.484L3301,546.088C3299.96,553.08 3296.79,559.296 3291.48,564.734C3286.17,570.173 3279.37,572.892 3271.09,572.892L3247.78,573.669C3228.35,574.705 3209.06,575.223 3189.9,575.223C3171.51,575.223 3153.12,574.317 3134.73,572.504C3133.18,560.073 3130.07,548.03 3125.41,536.376C3112.98,541.297 3100.94,547.512 3089.28,555.023C3079.44,561.238 3069.34,566.742 3058.98,571.533C3048.62,576.324 3037.36,578.719 3025.19,578.719ZM3083.46,452.468C3087.08,452.468 3090.77,452.273 3094.53,451.885C3098.28,451.496 3101.84,451.302 3105.21,451.302L3110.65,451.691C3118.42,438.483 3122.3,424.757 3122.3,410.513C3122.3,405.334 3121.91,400.154 3121.14,394.974L3119.97,394.974C3111.43,394.974 3103.33,396.658 3095.69,400.025C3088.05,403.391 3080.61,407.146 3073.36,411.29L3062.48,417.117L3061.7,423.333C3060.67,427.994 3060.15,432.656 3060.15,437.317C3060.15,439.648 3060.41,442.108 3060.93,444.698C3065.85,449.878 3073.36,452.468 3083.46,452.468Z" style="fill:rgb(28,18,28);fill-rule:nonzero;"/>
        <path d="M3646.34,594.646C3624.07,593.352 3602.06,591.539 3580.31,589.208C3540.16,585.582 3509.73,583.769 3489.01,583.769L3475.81,583.769C3464.15,583.769 3452.69,584.611 3441.43,586.294C3430.16,587.978 3418.83,588.819 3407.44,588.819C3400.45,588.819 3393.32,588.172 3386.07,586.877C3374.93,582.733 3367.55,572.892 3363.93,557.354L3360.82,544.534C3356.94,530.031 3353.51,515.399 3350.53,500.637C3347.55,485.876 3346.06,471.114 3346.06,456.352C3346.06,427.865 3351.24,411.29 3361.6,406.628C3367.55,403.78 3374.03,402.355 3381.02,402.355C3384.91,402.355 3388.66,402.744 3392.29,403.521C3419.48,411.29 3446.15,420.484 3472.31,431.102C3504.94,444.569 3538.87,455.316 3574.09,463.345C3579.79,464.122 3585.87,464.51 3592.35,464.51C3599.34,464.51 3605.88,463.539 3611.97,461.597C3618.05,459.654 3621.61,455.316 3622.65,448.583C3622.65,443.403 3620.58,438.806 3616.43,434.792C3612.29,430.778 3607.5,427.865 3602.06,426.052C3564.51,413.362 3526.18,402.614 3487.07,393.809C3452.89,385.781 3419.09,376.458 3385.68,365.839C3379.73,361.696 3375.78,356.581 3373.84,350.495C3371.89,344.409 3370.53,338.129 3369.76,331.654L3368.59,323.108C3367.55,307.051 3366.26,290.995 3364.71,274.938C3361.86,251.112 3360.17,227.416 3359.66,203.849C3361.47,192.972 3366.91,183.843 3375.97,176.462C3385.03,169.081 3395.78,164.225 3408.21,161.894C3464.93,150.24 3522.42,142.989 3580.69,140.14C3603.74,137.032 3626.92,133.666 3650.23,130.04L3742.68,117.221C3745.53,116.444 3748.51,116.055 3751.62,116.055C3757.06,116.055 3762.3,117.221 3767.35,119.551C3772.4,121.882 3774.93,125.637 3774.93,130.817L3774.93,131.594C3776.22,148.169 3778.16,164.873 3780.75,181.706C3785.41,211.748 3787.75,235.185 3787.75,252.019C3787.75,261.083 3787.1,270.277 3785.8,279.6L3778.03,282.319C3770.01,285.427 3761.78,288.211 3753.37,290.671C3744.95,293.131 3736.47,294.362 3727.92,294.362C3719.89,294.362 3712.12,292.808 3704.61,289.7C3693.22,285.297 3681.44,281.931 3669.26,279.6C3659.68,277.269 3650.36,274.679 3641.29,271.83C3619.8,264.579 3597.66,260.953 3574.87,260.953C3561.14,260.953 3552.59,262.248 3549.23,264.838C3547.16,266.651 3545.41,268.528 3543.98,270.471C3542.56,272.413 3541.2,274.032 3539.9,275.327C3556.48,285.427 3574.28,292.743 3593.32,297.275C3612.35,301.807 3631.84,305.368 3651.78,307.958C3683.38,311.325 3713.55,318.446 3742.3,329.324L3750.45,332.82C3757.7,335.669 3764.63,339.035 3771.24,342.92C3777.84,346.805 3783.21,351.725 3787.36,357.682C3795.64,375.551 3801.21,394.068 3804.06,413.232L3808.72,434.598C3811.57,444.439 3813,454.28 3813,464.122C3813,474.222 3810.15,483.804 3804.45,492.868C3789.17,508.925 3772.34,523.427 3753.95,536.376C3735.56,549.325 3716.53,561.756 3696.85,573.669C3685.97,580.662 3676.26,586.1 3667.71,589.985C3660.98,593.093 3653.85,594.646 3646.34,594.646Z" style="fill:rgb(28,18,28);fill-rule:nonzero;"/>
    </g>
</svg>
